<svg width="10" height="16" viewBox="0 0 10 16" fill="none" xmlns="http://www.w3.org/2000/svg">
<path d="M6.95736 7.99903L0.908989 1.95758C0.802585 1.8511 0.718179 1.72468 0.660593 1.58556C0.603008 1.44643 0.57337 1.29731 0.57337 1.14672C0.57337 0.996133 0.603008 0.847017 0.660593 0.70789C0.718179 0.568763 0.802585 0.44235 0.908989 0.335867C1.01539 0.229384 1.14171 0.144917 1.28074 0.0872884C1.41976 0.0296601 1.56876 0 1.71924 0C1.86972 0 2.01872 0.0296601 2.15775 0.0872884C2.29677 0.144917 2.42309 0.229384 2.52949 0.335867L9.37671 7.18817C9.48368 7.29434 9.56858 7.42065 9.62651 7.55982C9.68445 7.69899 9.71428 7.84826 9.71428 7.99903C9.71428 8.14979 9.68445 8.29906 9.62651 8.43823C9.56858 8.5774 9.48368 8.70371 9.37671 8.80988L2.52949 15.6622C2.42341 15.7692 2.29719 15.8542 2.15812 15.9122C2.01906 15.9701 1.86989 16 1.71924 16C1.56859 16 1.41943 15.9701 1.28036 15.9122C1.1413 15.8542 1.01508 15.7692 0.908989 15.6622C0.802026 15.556 0.717125 15.4297 0.659187 15.2905C0.60125 15.1514 0.571422 15.0021 0.571422 14.8513C0.571422 14.7006 0.60125 14.5513 0.659187 14.4121C0.717125 14.273 0.802026 14.1466 0.908989 14.0405L6.95736 7.99903Z" fill="white"/>
</svg>
